<svg id="Layer_1" data-name="Layer 1" xmlns="http://www.w3.org/2000/svg" viewBox="0 0 1024 1024"><defs><style>.cls-1{fill:#43a1ff;}.cls-2{fill:#fff;}.cls-3{fill:#f0ca32;}.cls-4{fill:#2c7281;}.cls-5{fill:#3c838f;}.cls-6{fill:#357c89;}.cls-7{fill:#27606e;}.cls-8{fill:#488d96;}.cls-9{fill:#58a3a7;}.cls-10,.cls-11,.cls-15,.cls-28{fill:none;}.cls-10{stroke:#ebebeb;}.cls-10,.cls-11,.cls-15{stroke-miterlimit:10;stroke-width:0.65px;}.cls-11{stroke:#eae9ea;}.cls-12{fill:#d26e73;}.cls-13{fill:#d86b4f;}.cls-14{fill:#c8c5c5;}.cls-15{stroke:#d6d7d7;}.cls-16{fill:#d6d7d7;}.cls-17{fill:#eae9ea;}.cls-18{fill:#ec7e5f;}.cls-19{fill:#323b3f;}.cls-20{fill:#b0b0b0;}.cls-21{fill:#8ed3e8;}.cls-22{fill:#c5c5c4;}.cls-23{fill:#ebebeb;}.cls-24{fill:#d8d8d8;}.cls-25{fill:#1e2223;}.cls-26{fill:#79c5e2;}.cls-27{fill:#3c515d;}</style></defs><rect class="cls-1" x="-1.14" y="-1.14" width="1026.27" height="1026.27" rx="513.13"/><path class="cls-2" d="M968.17,577.89,859.09,629.74l-43,20.42h0l-12.89,6.14h0l-34.68,16.48h0L680.76,714.5l-22-46.33-8.23-17.31-1-2.07h0l-8.21-17.26-6.24-13.14-7.89-16.61-53.4-112.33-3.4-7.15-2.18-4.59-.18-.39-3.41-7.17c-.11-.22-.21-.44-.32-.65l-2.95-6.22-2.58-5.43c-.08-.16-.14-.32-.22-.48l-8.1-17-.91-1.92-16.66-35.05-21.34-44.89L799,221.86q80.44,169.26,160.89,338.5Q964,569.12,968.17,577.89Z"/><rect class="cls-3" x="581.13" y="291.47" width="284.81" height="284.81" transform="translate(-116.2 352.62) rotate(-25.42)"/><g id="Layer_3" data-name="Layer 3"><path class="cls-4" d="M729.33,478.34l-8,79L694,547l-15.09-5.71-16.39-6.2,8.05-79h0Z"/><path class="cls-5" d="M670.62,456.12l61.74-6.81,59,19.1-62,9.93Z"/><polygon class="cls-6" points="729.33 478.34 721.29 557.36 783.31 547.41 791.35 468.41 791.32 468.41 729.33 478.34"/><path class="cls-4" d="M764.32,459.66,705,469.16l-12.45-4.71,57.91-9.28Z"/><path class="cls-7" d="M689.15,498h0s.45-4.84.91-9.51c.3-3.1,1.2-12,2.5-24L705,469.17l-3.34,33.11L689.15,498Z"/><path class="cls-7" d="M684.52,543.44h0q.38-4.05.78-8.12,1.07-10.91,2.24-21.62L700,518.07l-3,30.09Z"/><g id="W_Mark" data-name="W Mark"><path class="cls-8" d="M697,488.72a4.49,4.49,0,0,1,1.65.67,4.43,4.43,0,0,1,1.22,1.22,4.24,4.24,0,0,1,.42.75,5,5,0,0,1,.26.83,4.49,4.49,0,0,1-.65,3.44,4.39,4.39,0,0,1-1.21,1.22,4.05,4.05,0,0,1-.76.42,4.71,4.71,0,0,1-.83.26,4.48,4.48,0,0,1-4.66-1.86,4.28,4.28,0,0,1-.41-.76,4,4,0,0,1-.27-.83,4.5,4.5,0,0,1,.66-3.44,5,5,0,0,1,.54-.67,5,5,0,0,1,.67-.55,5.52,5.52,0,0,1,.75-.42,5,5,0,0,1,.83-.26,4.32,4.32,0,0,1,1.79,0Zm0-.27a4.78,4.78,0,1,0,3.81,5.59h0a4.79,4.79,0,0,0-3.79-5.6h0Z"/><path class="cls-9" d="M692.22,492.39a4,4,0,0,0,1.54,3.95l-.9-5.48A3.9,3.9,0,0,0,692.22,492.39Zm6.6,1.05a2.12,2.12,0,0,0-.12-1.14,1.85,1.85,0,0,1-.21-1,.68.68,0,0,1,.79-.57h.05a4,4,0,0,0-5.58-.81,4.81,4.81,0,0,0-.48.42l.25.06c.41.07,1.06.14,1.06.14a.17.17,0,0,1,.14.19.16.16,0,0,1-.18.14h0a4.05,4.05,0,0,1-.45-.05l.63,4.52,1.34-2.41-.29-1.79-.4-.11a.18.18,0,0,1-.12-.21.16.16,0,0,1,.2-.11h0s.64.17,1,.24,1.06.15,1.06.15a.16.16,0,0,1,.13.19.16.16,0,0,1-.17.14l-.46-.05.63,4.48.65-1.21A4.44,4.44,0,0,0,698.82,493.44Zm-2.68.05-1.83,3.19a3.94,3.94,0,0,0,2.43.4.13.13,0,0,0,0-.06Zm3.79-1.58a3.05,3.05,0,0,1,0,.41,3.86,3.86,0,0,1-.56,1.34l-1.86,3.25a4,4,0,0,0,2.47-5Z"/></g><path class="cls-10" d="M685.79,357.15l43.14,104"/><path class="cls-10" d="M719.51,360.13l9.42,101"/><path class="cls-10" d="M765.52,362.43l-36.59,98.74"/><path class="cls-11" d="M794.22,366.44l-65.29,94.73"/><path class="cls-12" d="M671.75,351a16.38,16.38,0,0,0,9.1,6.06,15,15,0,0,0,4.87.31q1.72-10.15,3.46-20.31c-1.29,0-8.38.19-13.42,5.82A17.47,17.47,0,0,0,671.75,351Z"/><path class="cls-13" d="M807.43,364.91c-.71,2.34-4.95,3-7.06,3a12.65,12.65,0,0,1-6.15-1.52c-.34-8.91,1.1-15.68,3.71-16.21,2.85-.58,6.3,6.47,9.08,12.2A3.41,3.41,0,0,1,807.43,364.91Z"/><path class="cls-14" d="M765.52,362.43a52,52,0,0,0,28.7,4q1.85-8.1,3.71-16.21c-4.8-14.18-15.79-22.3-25-20.86-1.68.26-5.94,1.26-10.24,6.34Z"/><path class="cls-13" d="M719.57,360.41a75,75,0,0,0,45.95,2q1.32-12.84,2.63-25.64l-50-8.46Z"/><path class="cls-14" d="M685.73,357.32a51.49,51.49,0,0,0,33.84,3.09l3-25.58L704.32,330l-15.14,7Z"/><path class="cls-15" d="M764.08,341.64Q746.5,401.4,728.93,461.17"/><path class="cls-15" d="M683.92,343.66l45,117.51"/><path class="cls-15" d="M719.48,336.9l9.45,124.27"/><path class="cls-10" d="M794.72,355l-65.8,106.21"/><path class="cls-16" d="M684.55,345a32.83,32.83,0,0,1,14.39-8.81,33.25,33.25,0,0,1,20.55.69c.15-.82.36-2,.65-3.51,2.75-13.9,5.37-27.15,14.81-35.28A30.41,30.41,0,0,1,746.64,292c-4.14-.37-23.54-1.59-40.89,12.37C686.73,319.61,684.81,341.39,684.55,345Z"/><path class="cls-17" d="M764.05,342.11a26.87,26.87,0,0,1,15.26.15,27.64,27.64,0,0,1,15.59,13,59.94,59.94,0,0,0-9.35-37.48c-12.87-19.67-33.08-24.52-37.28-25.43a67.91,67.91,0,0,1,15.78,49.73Z"/><path class="cls-18" d="M719.48,336.9a40.91,40.91,0,0,1,44.57,5.21c.44-2.85,5.44-38-12-48.07a19.07,19.07,0,0,0-5.46-2.1,18.63,18.63,0,0,0-6,.89C721.74,299,719.6,334.51,719.48,336.9Z"/><path class="cls-13" d="M746.63,291.94a58.6,58.6,0,0,0-29.77,6.14c-26.37,13.53-31.69,43.11-32.31,46.94a11.11,11.11,0,0,0-8.62,1.08,10.73,10.73,0,0,0-4.18,4.85,58.52,58.52,0,0,1,5.71-22.83c12.06-24.83,38.42-32.16,43.76-33.65a75.66,75.66,0,0,1,25.41-2.53Z"/><path class="cls-18" d="M794.9,355.29c.37-4.34,1.59-24.17-12.59-42a59.89,59.89,0,0,0-34-20.94c4.71.59,27.7,4,44.41,24.8C809,337.49,807.8,360,807.43,364.92a11.54,11.54,0,0,0-4.58-7.65A11.39,11.39,0,0,0,794.9,355.29Z"/><circle class="cls-16" cx="740.09" cy="328.92" r="0.67"/><circle class="cls-16" cx="738.6" cy="323.58" r="0.51"/><circle class="cls-16" cx="747.49" cy="328.82" r="0.51"/><circle class="cls-16" cx="742.26" cy="319.47" r="0.34"/><circle class="cls-16" cx="747.28" cy="323.35" r="0.34"/><circle class="cls-16" cx="747.87" cy="319.7" r="0.82"/><path class="cls-16" d="M741.08,321.37a3.68,3.68,0,0,1,1-.72,3.81,3.81,0,0,1,1.63-.33,4.69,4.69,0,0,1,2.72.88,2,2,0,0,1,.29.22.9.9,0,0,1,.12,1.21.88.88,0,0,1-1.21.17,3.13,3.13,0,0,0-1.6-.62,1.85,1.85,0,0,0-1.82.72,2,2,0,0,0-.34.71,2.47,2.47,0,0,0,.11,1.83,1.86,1.86,0,0,0,1.3.93,3.23,3.23,0,0,0,1.87-.13.86.86,0,0,1,1.11.5.88.88,0,0,1,.05.15.89.89,0,0,1-.5,1,4.83,4.83,0,0,1-1.87.4,4.24,4.24,0,0,1-2.51-.73,3.62,3.62,0,0,1-1.07-1.17,3.67,3.67,0,0,1-.48-1.65A4.46,4.46,0,0,1,741.08,321.37Z"/></g><rect class="cls-19" x="149.91" y="390" width="76.85" height="21.46" rx="6.09"/><rect class="cls-20" x="171.9" y="395.6" width="32.86" height="21.46" rx="10.73"/><rect class="cls-19" x="473.56" y="391.08" width="51.62" height="21.46" rx="4.86"/><path class="cls-21" d="M803.21,656.3l-34.68,16.48h0c-20.75-.44-46.87-1.35-80.07-3h0q-14-.71-29.7-1.59c-21.06-1.18-44.52-2.63-70.68-4.4q-19.65-1.34-38.44-2.71-42-3-79.76-6.31l-8-.7c-70.11-6.19-129.23-13-178-20.37q-23.2-3.54-43.28-7.26h0c-2.7-.51-5.37-1-8-1.52Q208,620.1,188.23,615c-46.92-12.15-72.32-25.59-86.65-38.89a60.59,60.59,0,0,1-17.27-26.86l-.11-.33A58,58,0,0,1,81.53,532l16.82-.21c0,.13,0,.26,0,.39v.07a40.78,40.78,0,0,0,1.88,11.56,36.9,36.9,0,0,0,1.34,3.6c11.64,27.4,52.25,41.32,90.87,51.3q14.63,3.78,32,7.38c2.37.49,4.78,1,7.24,1.48Q269.95,615.17,321,622h0q29.57,3.93,63.52,7.62,19.17,2.08,39.76,4.08,24.36,2.36,50.73,4.63l7.22.61q32.55,2.75,68.17,5.35,18.94,1.37,38.75,2.72c22.37,1.5,42.74,2.8,61.31,3.87q15.71.92,29.73,1.64C740.46,655.65,778.4,656.41,803.21,656.3Z"/><path class="cls-22" d="M550.44,415.43V656.65a11.93,11.93,0,0,1-.83,4.41,12.06,12.06,0,0,1-11.24,7.66H113.65a12.08,12.08,0,0,1-12.07-12.07V415.43a12.07,12.07,0,0,1,12.07-12.07H538.37A12.06,12.06,0,0,1,550.44,415.43Z"/><rect class="cls-19" x="101.58" y="438.41" width="448.86" height="195.27"/><path class="cls-22" d="M437.46,426.51H285.88a14.45,14.45,0,0,1-14-18.05l9.57-37.12a14.44,14.44,0,0,1,14-10.84H427.9a14.45,14.45,0,0,1,14,10.84q4.78,18.57,9.56,37.12A14.44,14.44,0,0,1,437.46,426.51Z"/><circle class="cls-23" cx="198.58" cy="471.42" r="14.61"/><rect class="cls-19" x="308.88" y="371.73" width="105.58" height="17.96" rx="1.89"/><path class="cls-24" d="M125.46,458A13.49,13.49,0,0,0,112,471.43c0,.42,0,.85.06,1.27a13.47,13.47,0,0,0,11.74,12.08,11.38,11.38,0,0,0,1.66.11,13.47,13.47,0,0,0,0-26.93Zm2.41,22.66a9.65,9.65,0,0,1-2.41.31,9.52,9.52,0,0,1-9.5-9.5,9.69,9.69,0,0,1,.56-3.25,9.51,9.51,0,1,1,11.35,12.44Z"/><circle class="cls-23" cx="361.67" cy="557.16" r="145.69"/><circle class="cls-25" cx="361.67" cy="557.16" r="139.41"/><circle class="cls-26" cx="361.67" cy="551.65" r="81.23"/><path class="cls-21" d="M414.17,489.67a81.22,81.22,0,0,1,9.49,114.47l-124-105A81.22,81.22,0,0,1,414.17,489.67Z"/><circle class="cls-27" cx="361.67" cy="551.65" r="39.63"/><path class="cls-28" d="M132.1,476.55q-2.21,2.07-4.23,4.07a9.65,9.65,0,0,1-2.41.31,9.52,9.52,0,0,1-9.5-9.5,9.69,9.69,0,0,1,.56-3.25c1.33-1.29,2.69-2.6,4.1-3.92Z"/><path class="cls-21" d="M123.8,484.78c-26.26,27.64-26.88,46.46-24.61,55.63a27.62,27.62,0,0,0,.93,3.06l-15.81,5.77c-.57-1.57-1-3.18-1.46-4.79-3.78-15.33-1.36-39.78,29.21-71.75,1.43-1.48,2.91-3,4.46-4.52a9.69,9.69,0,0,0-.56,3.25,9.52,9.52,0,0,0,9.5,9.5,9.65,9.65,0,0,0,2.41-.31C126.44,482,125.08,483.41,123.8,484.78Z"/><path class="cls-24" d="M539.13,462.76a13.45,13.45,0,0,0-25.77,5.43c0,.42,0,.85.06,1.28a13.47,13.47,0,0,0,11.74,12.07,11.3,11.3,0,0,0,1.66.1,13.46,13.46,0,0,0,12.31-18.88ZM536,470.65a9.56,9.56,0,0,1-6.78,6.73l-.3.07a9.47,9.47,0,0,1-11.59-9.26,9.5,9.5,0,0,1,19,0A9.59,9.59,0,0,1,536,470.65Z"/><path class="cls-28" d="M536.32,468.19a9.47,9.47,0,0,1-7.1,9.19,9.5,9.5,0,1,1,7.1-9.19Z"/><polygon class="cls-21" points="573.78 489.44 550.44 483.2 550.44 466.41 564.61 470.14 568.02 477.31 568.2 477.7 570.38 482.3 573.78 489.44"/><path class="cls-21" d="M564.61,470.14l-14.17-3.73V483.2L534.79,479l-5.87-1.57.12,0,.18,0a9.47,9.47,0,0,0,7.1-9.2c0-.32,0-.65-.05-1,0-.16,0-.32-.06-.47a7.36,7.36,0,0,0-.25-1.13,3,3,0,0,0-.12-.4,5.53,5.53,0,0,0-.35-.91l-.13-.29,0,0,0,0a5.05,5.05,0,0,0-.28-.51.69.69,0,0,0-.1-.17l0-.06-.12-.18a.71.71,0,0,0-.1-.14,5.6,5.6,0,0,0-.54-.74h0a.27.27,0,0,0-.07-.08.93.93,0,0,0-.16-.18l-.07-.09-.17-.16-.09-.1a.75.75,0,0,0-.16-.15l-.15-.16h0v0l5.88,1.58,11.31,3,13.85,3.71Z"/><path class="cls-21" d="M374.46,563c-1.93.31-5,2.2-6.76,3-1.54.74-3.74,1.78-6,1.07-1-.3-2.61-1.2-2.72-2.43s1.38-2.38,4.35-4.8c.64-.52.85-.66,1.2-.94,1.57-1.26,5.54-4.44,5.49-8.56a7,7,0,0,0-3.56-6.12,6.87,6.87,0,0,0-4.63-.36,10,10,0,0,0-3.9,2.16,20.08,20.08,0,0,0-5.58,6.57,15.59,15.59,0,0,0-2.12,7,14.22,14.22,0,0,0,1.23,6.35,11.91,11.91,0,0,0,3.78,4.8,12.11,12.11,0,0,0,4.56,2,15.47,15.47,0,0,0,5.8.24,17.28,17.28,0,0,0,9-4.44c2.48-2.06,2.54-3.06,2.47-3.54a2.66,2.66,0,0,0-1.74-2.06A1.87,1.87,0,0,0,374.46,563Zm-18.26-3.58c-1-.69.34-5.07,3.14-7.49.87-.76,2.63-2.05,3.37-1.52s-.06,3.12-.13,3.31a8.1,8.1,0,0,1-1.95,2.9C359.79,557.5,357.07,560,356.2,559.43Z"/><rect class="cls-21" x="352.33" y="529.96" width="4.08" height="11.86" rx="2" transform="translate(-188.43 192.2) rotate(-24.18)"/><rect class="cls-21" x="361.46" y="528" width="4.08" height="11.86" rx="2" transform="translate(55.98 -34.09) rotate(5.82)"/><rect class="cls-21" x="345.24" y="535.29" width="4.08" height="11.86" rx="2" transform="translate(989.37 576.32) rotate(125.82)"/><rect class="cls-21" x="341.99" y="543.43" width="4.08" height="11.86" rx="2" transform="translate(935.3 283.75) rotate(97.87)"/><rect class="cls-21" x="369.71" y="530.99" width="4.08" height="11.86" rx="2" transform="translate(361.14 -116.05) rotate(33.77)"/></svg>